<svg width="70" height="38" viewBox="0 0 70 38" fill="none" xmlns="http://www.w3.org/2000/svg">
<path d="M7.90761 32.9404V33.4277H6.5871V37.5923H5.99227V33.4277H4.66382V32.9404H7.90761ZM16.6595 37.5923L15.4401 35.6925H14.7759V37.5923H14.1811V32.9404H15.7197C16.2484 32.9404 16.645 33.068 16.9093 33.3231C17.0426 33.453 17.1469 33.6094 17.2152 33.7821C17.2836 33.9548 17.3145 34.1399 17.3059 34.3253C17.3221 34.6606 17.2078 34.9892 16.9867 35.2427C16.7394 35.489 16.4131 35.6412 16.0647 35.6728L17.3535 37.5923H16.6595ZM14.7759 35.2565H15.6582C16.3443 35.2565 16.6873 34.9573 16.6873 34.3589C16.6873 33.7604 16.3443 33.4612 15.6582 33.4612H14.7759V35.2565ZM26.4524 36.5171H24.4022L24.0056 37.5923H23.3553L25.0862 33.0252H25.7703L27.4953 37.5923H26.8449L26.4524 36.5171ZM26.2799 36.0496L25.4233 33.6999L24.5687 36.0496H26.2799ZM36.4217 32.9404V33.4277H34.3854V35.0395H36.1163V35.507H34.3854V37.5923H33.7906V32.9404H36.4217ZM45.4571 32.9404V33.4277H43.4188V35.0395H45.1498V35.507H43.4188V37.5923H42.824V32.9404H45.4571ZM52.4463 32.9404V37.5923H51.8515V32.9404H52.4463ZM61.1586 32.8931C61.6642 32.8735 62.1618 33.0228 62.5723 33.3172C62.9491 33.6016 63.2198 34.0028 63.3416 34.4575H62.7051C62.5928 34.1604 62.3914 33.9049 62.1281 33.7256C61.8403 33.5336 61.499 33.4363 61.1526 33.4474C60.8625 33.4434 60.5771 33.5214 60.3298 33.6723C60.0842 33.8267 59.8865 34.046 59.7587 34.3056C59.6181 34.6074 59.5502 34.9378 59.5605 35.2703C59.5507 35.6003 59.6186 35.9279 59.7587 36.2271C59.8887 36.4852 60.0859 36.7039 60.3298 36.8604C60.5784 37.0078 60.8633 37.0836 61.1526 37.0794C61.4982 37.0906 61.8388 36.9955 62.1281 36.8071C62.3909 36.6248 62.5921 36.3676 62.7051 36.0693H63.3535C63.2304 36.5255 62.9601 36.9289 62.5842 37.2175C62.1716 37.5068 61.6748 37.6531 61.1705 37.6337C60.7638 37.6413 60.3627 37.5383 60.0106 37.3358C59.673 37.1352 59.3983 36.8448 59.2175 36.4974C59.0334 36.1129 58.9378 35.6923 58.9378 35.2664C58.9378 34.8404 59.0334 34.4199 59.2175 34.0353C59.3961 33.6863 59.6713 33.3954 60.0106 33.1969C60.362 32.9904 60.7643 32.8852 61.1725 32.8931H61.1586Z" fill="white"/>
<path d="M28.3379 19.8529V4.26772C28.3379 3.97575 28.4172 3.82779 28.5798 3.82779H31.2168C31.6218 3.81431 32.0247 3.88989 32.3969 4.04914C32.7691 4.20839 33.1014 4.44739 33.3701 4.74909C33.92 5.36329 34.3489 6.49831 34.6569 8.15415C34.9649 9.81 35.1262 12.0597 35.1407 14.9031C35.1407 15.9014 35.1255 16.822 35.0951 17.6651C36.4143 17.4337 37.7492 17.3018 39.0884 17.2705C39.1135 16.5011 39.1261 15.687 39.1261 14.8282C39.1261 12.157 38.9582 9.89351 38.6224 8.03776C38.2867 6.182 37.797 4.71358 37.1532 3.63248C36.4923 2.56322 35.7276 1.79514 34.8592 1.32824C33.9148 0.843041 32.8622 0.604114 31.7998 0.633814H24.876C24.8036 0.627276 24.7308 0.638416 24.6637 0.666264C24.5967 0.694113 24.5375 0.737828 24.4913 0.793612C24.41 0.888306 24.3704 1.10137 24.3704 1.43477V20.9202C25.7269 20.7042 27.0568 20.3465 28.3379 19.8529Z" fill="white"/>
<path d="M19.7329 21.2043V1.57484C19.7405 1.36465 19.713 1.15465 19.6516 0.953406C19.6053 0.807418 19.5485 0.720615 19.4811 0.692996C19.4007 0.650441 19.3103 0.63001 19.2194 0.633811H16.2611C16.1854 0.63032 16.11 0.644777 16.041 0.675991C15.9721 0.707205 15.9116 0.754281 15.8645 0.813337C15.7608 1.05311 15.7192 1.31494 15.7436 1.57484V20.8432C17.0611 21.0728 18.3954 21.1935 19.7329 21.2043Z" fill="white"/>
<path d="M46.8092 18.0635L48.8792 4.55968C48.891 4.47879 48.9188 4.43933 48.9585 4.43933C48.9981 4.43933 49.0061 4.48668 49.0199 4.5794L50.9492 19.5353C52.2642 20.0841 53.6294 20.5056 55.0257 20.7939L51.8077 1.63598C51.7059 0.99547 51.464 0.661408 51.082 0.633789H46.9955C46.6069 0.661408 46.3591 0.99547 46.252 1.63598L43.5535 17.45C44.6527 17.5722 45.7411 17.7773 46.8092 18.0635Z" fill="white"/>
<path d="M0.719505 3.83468C0.819129 3.85057 0.920026 3.85718 1.02088 3.85441H4.52244C4.67114 3.85441 4.7445 4.0221 4.7445 4.3555V17.5437C6.10119 17.7392 7.4358 18.0643 8.72985 18.5143V4.3555C8.72985 4.0221 8.80321 3.85441 8.95192 3.85441H12.394C12.4626 3.86264 12.5321 3.85635 12.598 3.83595C12.664 3.81555 12.7249 3.7815 12.7767 3.73604C12.856 3.64135 12.8956 3.42828 12.8956 3.09488V1.51663C12.9199 1.27615 12.8788 1.0336 12.7767 0.814315C12.7346 0.753116 12.6771 0.70397 12.6099 0.671777C12.5428 0.639584 12.4683 0.62547 12.394 0.630844H1.02088C0.944895 0.624733 0.868596 0.638013 0.799205 0.669428C0.729813 0.700842 0.669624 0.749353 0.624333 0.810369C0.537091 0.918874 0.497436 1.15166 0.497436 1.51269V3.09093C0.49049 3.27305 0.510532 3.45518 0.556919 3.63148C0.589218 3.71402 0.645906 3.78486 0.719505 3.83468Z" fill="white"/>
<path d="M59.8281 21.2083C61.0499 21.2158 62.2708 21.1407 63.4824 20.9834V1.57487C63.4824 1.18031 63.4407 0.921872 63.3614 0.813367C63.3188 0.752894 63.2612 0.704523 63.194 0.673037C63.1269 0.641551 63.0527 0.628041 62.9787 0.633842H60.0205C59.9465 0.627841 59.8722 0.641262 59.805 0.672765C59.7379 0.704268 59.6802 0.752749 59.6378 0.813367C59.5565 0.921872 59.5168 1.17439 59.5168 1.57487V21.2063L59.8281 21.2083Z" fill="white"/>
<path d="M68.9964 26.2487H63.7639C63.5756 26.2487 63.4824 26.1027 63.4824 25.8087V23.5696C62.2694 23.7082 61.0491 23.7741 59.8281 23.7669H59.5168V28.4878C59.5168 28.8824 59.5565 29.1487 59.6378 29.2769C59.6838 29.3324 59.7427 29.3759 59.8093 29.4038C59.876 29.4316 59.9484 29.4429 60.0205 29.4367H68.9964C69.0666 29.4429 69.1374 29.4335 69.2035 29.4093C69.2697 29.3851 69.3296 29.3466 69.3791 29.2966C69.4813 29.0921 69.5233 28.863 69.5 28.6358V27.0299C69.5 26.6965 69.4604 26.4834 69.3791 26.3887C69.3296 26.3387 69.2697 26.3003 69.2035 26.276C69.1374 26.2518 69.0666 26.2425 68.9964 26.2487Z" fill="white"/>
<path d="M34.9325 20.3066C34.873 20.9221 34.8016 21.4745 34.7184 21.9637C34.454 23.592 34.0383 24.7099 33.4712 25.3175C32.9061 25.9311 32.109 26.2388 31.074 26.2388H28.5996C28.4251 26.2388 28.3378 26.0928 28.3378 25.7989V22.5773C27.0488 23.0133 25.7209 23.3264 24.3723 23.5124V28.5529C24.3723 28.9258 24.412 29.1665 24.4933 29.273C24.5393 29.3285 24.5981 29.372 24.6648 29.3999C24.7314 29.4277 24.8039 29.439 24.8759 29.4328H31.2565C31.9419 29.4397 32.6272 29.4061 33.3086 29.3322C33.9014 29.2456 34.4822 29.0914 35.0396 28.8725C35.5963 28.6674 36.0987 28.3389 36.5088 27.9118C36.9576 27.3955 37.3369 26.8231 37.637 26.2092C38.0343 25.3775 38.312 24.4942 38.4618 23.5854C38.6889 22.3532 38.8504 21.1099 38.9456 19.8607V19.8469C37.5968 19.8808 36.2538 20.0347 34.9325 20.3066Z" fill="white"/>
<path d="M56.277 28.3912C56.266 28.3186 56.2587 28.2455 56.2552 28.1722L55.4621 23.4729C52.9182 23.0902 51.1655 22.3918 49.4543 21.7093C47.6262 20.9793 45.8755 20.2809 43.1095 19.9811L41.7117 28.1722C41.6939 28.2844 41.6872 28.398 41.6918 28.5115V28.8449C41.6918 29.2395 41.791 29.4249 41.9932 29.4249H44.5708C44.6398 29.4297 44.7089 29.4177 44.7722 29.3898C44.8354 29.362 44.8908 29.3191 44.9337 29.2651C45.0428 29.0529 45.1101 28.8219 45.1319 28.5845L45.9905 23.5183C46.044 23.2125 46.1174 23.0587 46.2125 23.0587H51.0822C51.1893 23.0587 51.2646 23.2046 51.3043 23.4986L52.0518 28.6121C52.1443 29.1592 52.3518 29.4328 52.6743 29.4328H55.9955C56.2235 29.4328 56.3385 29.2454 56.3385 28.8725C56.3372 28.8063 56.3306 28.7404 56.3186 28.6752C56.3159 28.5793 56.3019 28.4839 56.277 28.3912Z" fill="white"/>
<path d="M4.74708 20.1429V28.4721C4.72367 28.741 4.76513 29.0115 4.86803 29.2613C4.91381 29.32 4.97333 29.3667 5.04141 29.3973C5.1095 29.4279 5.18407 29.4415 5.25863 29.4368H8.20898C8.28295 29.4426 8.35716 29.4291 8.42427 29.3976C8.49139 29.3661 8.54908 29.3178 8.59165 29.2573C8.68484 29.137 8.73242 28.8766 8.73242 28.4682V21.2477C7.44622 20.7425 6.11054 20.3723 4.74708 20.1429Z" fill="white"/>
<path d="M15.7374 23.4474V28.4919C15.7314 28.7007 15.7513 28.9094 15.7969 29.1133C15.8258 29.2238 15.8898 29.322 15.9793 29.3934C16.07 29.423 16.1654 29.4364 16.2608 29.4329H19.2191C19.2931 29.4387 19.3673 29.4252 19.4344 29.3937C19.5015 29.3622 19.5592 29.3138 19.6018 29.2534C19.7055 29.0136 19.747 28.7518 19.7227 28.4919V23.769C18.3883 23.7566 17.0564 23.6491 15.7374 23.4474Z" fill="white"/>
</svg>
